<svg width="190" height="102" viewBox="0 0 190 102" fill="none" xmlns="http://www.w3.org/2000/svg">
<rect width="190" height="58" transform="translate(0 19)" fill="white"/>
<path d="M0 19H190V77H0V19Z" fill="white"/>
<path fill-rule="evenodd" clip-rule="evenodd" d="M186.759 22.5H3.5V73.5H186.759V22.5ZM0 19V77H190V19H0Z" fill="black"/>
<path d="M170.167 59.8137C165.665 59.8137 163.939 56.9706 163.939 52.706V44.3122H161.265V40.623L164.176 40.3861L164.751 35.3092H168.914V40.3861H173.585V44.3122H168.914V52.706C168.914 54.8722 169.794 55.8876 171.487 55.8876C172.096 55.8876 172.84 55.6845 173.348 55.4814L174.16 59.1029C173.145 59.4414 171.825 59.8137 170.167 59.8137Z" fill="black"/>
<path d="M141.578 59.3398V32.3307H146.519V39.1337L146.316 42.6876C147.839 41.266 149.701 39.9122 152.273 39.9122C156.368 39.9122 158.128 42.7553 158.128 47.5275V59.3398H153.153V48.1368C153.153 45.226 152.341 44.1768 150.479 44.1768C148.922 44.1768 147.941 44.9214 146.519 46.3091V59.3398H141.578Z" fill="black"/>
<path d="M128.051 67.5644C123.583 67.5644 120.131 66.0413 120.131 62.6906C120.131 61.0998 121.112 59.746 122.839 58.7644V58.5952C121.857 57.9521 121.112 56.9706 121.112 55.4137C121.112 53.9922 122.094 52.6722 123.211 51.8599V51.7245C121.925 50.7768 120.706 48.983 120.706 46.783C120.706 42.3153 124.328 39.9122 128.355 39.9122C129.405 39.9122 130.42 40.1153 131.198 40.3861H138.035V44.0414H134.786C135.294 44.6845 135.666 45.7337 135.666 46.9184C135.666 51.1829 132.417 53.3491 128.355 53.3491C127.611 53.3491 126.731 53.1799 125.919 52.9091C125.377 53.3491 125.106 53.7891 125.106 54.5337C125.106 55.5491 125.851 56.0906 128.085 56.0906H131.3C135.869 56.0906 138.34 57.5121 138.34 60.829C138.34 64.6536 134.38 67.5644 128.051 67.5644ZM128.355 50.2691C130.014 50.2691 131.3 49.0168 131.3 46.783C131.3 44.5491 130.048 43.2968 128.355 43.2968C126.663 43.2968 125.377 44.5491 125.377 46.783C125.377 49.0168 126.697 50.2691 128.355 50.2691ZM128.795 64.4167C131.638 64.4167 133.602 63.1644 133.602 61.6752C133.602 60.3214 132.485 59.9829 130.454 59.9829H128.152C127.002 59.9829 126.189 59.8814 125.512 59.7121C124.666 60.389 124.26 61.1337 124.26 61.9121C124.26 63.5029 126.02 64.4167 128.795 64.4167Z" fill="black"/>
<path d="M111.103 59.3398V40.3861H116.045V59.3398H111.103ZM113.608 37.3399C111.882 37.3399 110.629 36.1892 110.629 34.6322C110.629 33.0076 111.882 31.9246 113.608 31.9246C115.3 31.9246 116.552 33.0076 116.552 34.6322C116.552 36.1892 115.3 37.3399 113.608 37.3399Z" fill="black"/>
<path d="M96.3618 59.3398V40.3861H100.423L100.762 43.7368H100.897C102.285 41.2661 104.316 39.9122 106.279 39.9122C107.328 39.9122 107.937 40.0815 108.513 40.3184L107.633 44.6168C106.989 44.4137 106.448 44.3122 105.669 44.3122C104.18 44.3122 102.386 45.2937 101.303 48.0353V59.3398H96.3618Z" fill="black"/>
<path d="M78.5855 66.9551C77.4686 66.9551 76.724 66.8197 75.9794 66.5828L76.8932 62.7582C77.2317 62.8597 77.7732 62.9951 78.2132 62.9951C80.1424 62.9951 81.2255 61.7766 81.767 60.1182L82.1055 59.0013L74.7271 40.386H79.7363L82.7486 49.1859C83.3239 50.8782 83.7978 52.7059 84.3393 54.5336H84.5085C84.9485 52.7736 85.4224 50.9459 85.8624 49.1859L88.4685 40.386H93.2408L86.5055 59.9151C84.847 64.3828 82.8162 66.9551 78.5855 66.9551Z" fill="black"/>
<path d="M56.4248 66.6167V40.3861H60.4863L60.8248 42.3491H60.9602C62.5509 40.9953 64.514 39.9122 66.5448 39.9122C71.2155 39.9122 73.9909 43.7368 73.9909 49.5583C73.9909 56.0568 70.0986 59.8137 65.9355 59.8137C64.2771 59.8137 62.6863 59.0691 61.2309 57.7491L61.3663 60.8629V66.6167H56.4248ZM64.8186 55.7183C67.1201 55.7183 68.8801 53.7552 68.8801 49.626C68.8801 46.0045 67.7294 44.0076 65.1232 44.0076C63.8371 44.0076 62.6863 44.6507 61.3663 45.9707V54.2968C62.5848 55.346 63.8032 55.7183 64.8186 55.7183Z" fill="black"/>
<path d="M44.1739 59.8137C39.4355 59.8137 35.0693 56.1583 35.0693 49.8968C35.0693 43.5676 39.4355 39.9122 44.1739 39.9122C48.9123 39.9122 53.2785 43.5676 53.2785 49.8968C53.2785 56.1583 48.9123 59.8137 44.1739 59.8137ZM44.1739 55.7521C46.7462 55.7521 48.2016 53.4506 48.2016 49.8968C48.2016 46.3091 46.7462 43.9737 44.1739 43.9737C41.6016 43.9737 40.1462 46.3091 40.1462 49.8968C40.1462 53.4506 41.6016 55.7521 44.1739 55.7521Z" fill="black"/>
<path d="M25.3141 59.8137C18.9849 59.8137 13.8403 55.2783 13.8403 46.9183C13.8403 38.6599 19.1542 33.8199 25.4833 33.8199C28.6649 33.8199 31.2033 35.343 32.8279 37.0353L30.1879 40.2168C28.9356 38.9984 27.4803 38.1184 25.5849 38.1184C21.7941 38.1184 18.9511 41.3676 18.9511 46.7491C18.9511 52.1983 21.5234 55.4814 25.4833 55.4814C27.6156 55.4814 29.3079 54.466 30.6618 53.0106L33.3018 56.1244C31.2372 58.5275 28.5633 59.8137 25.3141 59.8137Z" fill="black"/>
<path d="M171.568 100.859C169.933 100.859 168.124 100.14 166.925 99.1371L168.386 97.1314C169.476 97.9816 170.522 98.4613 171.656 98.4613C172.877 98.4613 173.422 97.938 173.422 97.175C173.422 96.2593 172.157 95.8451 170.871 95.3437C169.323 94.755 167.535 93.8176 167.535 91.79C167.535 89.5881 169.323 88.0402 172.07 88.0402C173.858 88.0402 175.209 88.7815 176.234 89.5445L174.795 91.4848C173.923 90.8744 173.073 90.4384 172.157 90.4384C171.067 90.4384 170.544 90.918 170.544 91.6156C170.544 92.5095 171.743 92.8365 173.029 93.3161C174.642 93.9266 176.43 94.7332 176.43 97.0006C176.43 99.1371 174.751 100.859 171.568 100.859Z" fill="black"/>
<path d="M161.772 100.859C158.392 100.859 155.82 98.5049 155.82 94.4716C155.82 90.3948 158.741 88.0402 162.055 88.0402C163.559 88.0402 164.715 88.6289 165.609 89.3919L164.083 91.463C163.472 90.9398 162.905 90.6564 162.208 90.6564C160.354 90.6564 159.09 92.1607 159.09 94.4716C159.09 96.7607 160.354 98.2432 162.12 98.2432C162.992 98.2432 163.821 97.829 164.497 97.2622L165.761 99.3769C164.606 100.402 163.123 100.859 161.772 100.859Z" fill="black"/>
<path d="M149.962 100.554V88.3455H153.145V100.554H149.962ZM151.575 86.3834C150.463 86.3834 149.657 85.6422 149.657 84.6393C149.657 83.5928 150.463 82.8952 151.575 82.8952C152.665 82.8952 153.472 83.5928 153.472 84.6393C153.472 85.6422 152.665 86.3834 151.575 86.3834Z" fill="black"/>
<path d="M142.873 100.859C141.238 100.859 139.429 100.14 138.229 99.1371L139.69 97.1314C140.78 97.9816 141.827 98.4613 142.96 98.4613C144.181 98.4613 144.726 97.938 144.726 97.175C144.726 96.2593 143.462 95.8451 142.176 95.3437C140.628 94.755 138.84 93.8176 138.84 91.79C138.84 89.5881 140.628 88.0402 143.375 88.0402C145.162 88.0402 146.514 88.7815 147.539 89.5445L146.1 91.4848C145.228 90.8744 144.377 90.4384 143.462 90.4384C142.372 90.4384 141.849 90.918 141.849 91.6156C141.849 92.5095 143.048 92.8365 144.334 93.3161C145.947 93.9266 147.735 94.7332 147.735 97.0006C147.735 99.1371 146.056 100.859 142.873 100.859Z" fill="black"/>
<path d="M129.514 100.859C127.333 100.859 125.895 99.3115 125.895 97.2404C125.895 94.6242 128.009 93.2507 132.915 92.7275C132.871 91.5284 132.348 90.6128 130.843 90.6128C129.71 90.6128 128.62 91.1142 127.486 91.7682L126.331 89.6535C127.769 88.7597 129.514 88.0402 131.432 88.0402C134.528 88.0402 136.119 89.8933 136.119 93.4251V100.554H133.503L133.263 99.2461H133.198C132.13 100.162 130.909 100.859 129.514 100.859ZM130.56 98.3522C131.476 98.3522 132.152 97.9162 132.915 97.1532V94.6896C129.95 95.082 128.947 95.8887 128.947 96.9788C128.947 97.938 129.623 98.3522 130.56 98.3522Z" fill="black"/>
<path d="M111.928 100.554V84.4213H117.269C120.583 84.4213 123.112 85.3805 123.112 88.3891C123.112 89.8716 122.283 91.3977 120.91 91.8773V91.9863C122.654 92.4005 123.94 93.6214 123.94 95.8016C123.94 99.0499 121.237 100.554 117.683 100.554H111.928ZM115.154 90.9835H117.029C119.079 90.9835 119.972 90.155 119.972 88.8687C119.972 87.4516 119.013 86.8848 117.073 86.8848H115.154V90.9835ZM115.154 98.0689H117.4C119.602 98.0689 120.801 97.284 120.801 95.6053C120.801 94.0356 119.624 93.3816 117.4 93.3816H115.154V98.0689Z" fill="black"/>
<path d="M99.3567 100.859C95.9557 100.859 93.2959 98.4831 93.2959 94.4716C93.2959 90.5038 96.0647 88.0402 98.986 88.0402C102.343 88.0402 104.088 90.5038 104.088 93.883C104.088 94.4716 104.022 95.0602 103.935 95.3437H96.4135C96.6751 97.3494 97.9832 98.3958 99.7927 98.3958C100.796 98.3958 101.668 98.0906 102.54 97.5456L103.63 99.5077C102.431 100.336 100.883 100.859 99.3567 100.859ZM96.3699 93.2289H101.341C101.341 91.572 100.599 90.5256 99.0296 90.5256C97.7434 90.5256 96.6097 91.4412 96.3699 93.2289Z" fill="black"/>
<path d="M80.3311 100.554V83.1568H83.514V87.5389L83.3832 89.828C84.3643 88.9123 85.5634 88.0403 87.2203 88.0403C89.8582 88.0403 90.9919 89.8716 90.9919 92.9456V100.554H87.7871V93.338C87.7871 91.4631 87.2639 90.7873 86.0648 90.7873C85.0619 90.7873 84.4297 91.2669 83.514 92.1607V100.554H80.3311Z" fill="black"/>
<path d="M75.6459 100.859C72.7463 100.859 71.6344 99.0282 71.6344 96.2812V90.8745H69.9121V88.4981L71.787 88.3455L72.1576 85.0753H74.8392V88.3455H77.8478V90.8745H74.8392V96.2812C74.8392 97.6765 75.406 98.3305 76.4961 98.3305C76.8885 98.3305 77.3682 98.1997 77.6952 98.0689L78.2184 100.402C77.5644 100.62 76.7141 100.859 75.6459 100.859Z" fill="black"/>
<path d="M45.2241 100.554V88.3454H47.8403L48.0583 89.9805H48.1455C49.1702 88.9123 50.3038 88.0402 51.8953 88.0402C53.6394 88.0402 54.6641 88.8251 55.2527 90.1768C56.3646 88.9995 57.5419 88.0402 59.1334 88.0402C61.7277 88.0402 62.9268 89.8715 62.9268 92.9455V100.554H59.722V93.3379C59.722 91.463 59.177 90.7872 58.0215 90.7872C57.3239 90.7872 56.539 91.245 55.667 92.1607V100.554H52.4622V93.3379C52.4622 91.463 51.9171 90.7872 50.7617 90.7872C50.064 90.7872 49.2792 91.245 48.4071 92.1607V100.554H45.2241Z" fill="black"/>
<path d="M37.1141 100.859C34.0619 100.859 31.2495 98.5049 31.2495 94.4716C31.2495 90.3948 34.0619 88.0402 37.1141 88.0402C40.1663 88.0402 42.9786 90.3948 42.9786 94.4716C42.9786 98.5049 40.1663 100.859 37.1141 100.859ZM37.1141 98.2432C38.771 98.2432 39.7084 96.7607 39.7084 94.4716C39.7084 92.1607 38.771 90.6564 37.1141 90.6564C35.4572 90.6564 34.5197 92.1607 34.5197 94.4716C34.5197 96.7607 35.4572 98.2432 37.1141 98.2432Z" fill="black"/>
<path d="M22.7729 100.554V88.3454H25.3891L25.6071 90.5038H25.6943C26.5882 88.9123 27.8963 88.0402 29.1607 88.0402C29.8366 88.0402 30.229 88.1492 30.5996 88.3018L30.0328 91.0706C29.6186 90.9398 29.2697 90.8744 28.7683 90.8744C27.8091 90.8744 26.6536 91.5066 25.9559 93.2725V100.554H22.7729Z" fill="black"/>
<path d="M21.7671 83.2875L21.1785 85.6421C20.7643 85.4895 20.2846 85.3805 19.8922 85.3805C18.9329 85.3805 18.4097 85.9473 18.4097 87.299V88.3454H20.6989V90.8744H18.4097V100.554H15.2049V90.8744H13.5698V88.498L15.2049 88.3672V87.3644C15.2049 84.8136 16.3822 82.8515 19.4562 82.8515C20.3936 82.8515 21.2221 83.0695 21.7671 83.2875Z" fill="black"/>
<rect width="119.549" height="20.8452" fill="black"/>
<path d="M111.726 16.6612C111.084 16.6612 110.563 16.5347 110.165 16.2818C109.766 16.019 109.479 15.659 109.303 15.2017C109.128 14.7444 109.041 14.2141 109.041 13.6108V9.97663H107.888V8.38575L109.157 8.28359L109.406 6.07971H111.172V8.28359H113.2V9.97663H111.172V13.5962C111.172 14.0633 111.269 14.4087 111.464 14.6325C111.658 14.8563 111.935 14.9682 112.295 14.9682C112.432 14.9682 112.573 14.9487 112.719 14.9098C112.865 14.8709 112.991 14.832 113.098 14.7931L113.463 16.3547C113.239 16.4228 112.981 16.491 112.69 16.5591C112.407 16.6272 112.086 16.6612 111.726 16.6612Z" fill="white"/>
<path d="M101.878 16.6613C100.993 16.6613 100.351 16.3743 99.9519 15.8002C99.553 15.2164 99.3535 14.4088 99.3535 13.3774V8.28369H101.484V13.1147C101.484 13.7472 101.577 14.1899 101.762 14.4429C101.947 14.6959 102.243 14.8223 102.652 14.8223C102.983 14.8223 103.27 14.7445 103.513 14.5888C103.766 14.4234 104.029 14.1607 104.301 13.8007V8.28369H106.447V16.457H104.695L104.535 15.2748H104.476C104.126 15.6932 103.747 16.0289 103.338 16.2819C102.929 16.5349 102.443 16.6613 101.878 16.6613Z" fill="white"/>
<path d="M93.7205 16.6613C93.0394 16.6613 92.3972 16.4911 91.794 16.1505C91.2004 15.8099 90.7188 15.3234 90.3491 14.691C89.9793 14.0488 89.7944 13.2752 89.7944 12.3703C89.7944 11.4654 89.9793 10.6968 90.3491 10.0643C90.7188 9.4221 91.2004 8.93073 91.794 8.59018C92.3972 8.24962 93.0394 8.07935 93.7205 8.07935C94.2362 8.07935 94.7276 8.17665 95.1947 8.37125C95.6617 8.56585 96.0801 8.84803 96.4499 9.21777C96.8196 9.57779 97.1115 10.0254 97.3256 10.5605C97.5396 11.086 97.6467 11.6892 97.6467 12.3703C97.6467 13.2752 97.4618 14.0488 97.092 14.691C96.7223 15.3234 96.2358 15.8099 95.6325 16.1505C95.039 16.4911 94.4017 16.6613 93.7205 16.6613ZM93.7205 14.9099C94.0903 14.9099 94.4017 14.8077 94.6546 14.6034C94.9174 14.3893 95.112 14.0926 95.2385 13.7131C95.3747 13.3336 95.4428 12.886 95.4428 12.3703C95.4428 11.8546 95.3747 11.4071 95.2385 11.0276C95.112 10.6481 94.9174 10.3562 94.6546 10.1519C94.4017 9.9378 94.0903 9.83077 93.7205 9.83077C93.3508 9.83077 93.0346 9.9378 92.7719 10.1519C92.5189 10.3562 92.3243 10.6481 92.1881 11.0276C92.0616 11.4071 91.9983 11.8546 91.9983 12.3703C91.9983 12.886 92.0616 13.3336 92.1881 13.7131C92.3243 14.0926 92.5189 14.3893 92.7719 14.6034C93.0346 14.8077 93.3508 14.9099 93.7205 14.9099Z" fill="white"/>
<path d="M85.0134 16.6614C84.6533 16.6614 84.2836 16.5689 83.9041 16.3841C83.5247 16.1992 83.1695 15.9365 82.8387 15.5959H82.7657L82.5906 16.457H80.9121V4.81006H83.0576V7.7437L82.9846 9.05726C83.3155 8.76536 83.6755 8.53184 84.0647 8.35669C84.4636 8.17182 84.8625 8.07939 85.2615 8.07939C85.9329 8.07939 86.5069 8.25453 86.9837 8.60481C87.4702 8.94537 87.84 9.42701 88.0929 10.0497C88.3557 10.6627 88.487 11.3876 88.487 12.2244C88.487 13.1585 88.3216 13.9613 87.9908 14.6326C87.66 15.2943 87.227 15.8003 86.6918 16.1505C86.1664 16.4911 85.6069 16.6614 85.0134 16.6614ZM84.5463 14.8953C84.8674 14.8953 85.1593 14.8029 85.422 14.618C85.6847 14.4234 85.8939 14.1315 86.0496 13.7423C86.2053 13.3531 86.2831 12.8617 86.2831 12.2682C86.2831 11.7525 86.2248 11.3147 86.108 10.9546C85.9912 10.5849 85.8161 10.3076 85.5826 10.1227C85.3491 9.93784 85.0426 9.84541 84.6631 9.84541C84.3906 9.84541 84.1231 9.91352 83.8603 10.0497C83.6074 10.186 83.3398 10.3952 83.0576 10.6773V14.2823C83.3106 14.5159 83.5636 14.6764 83.8166 14.764C84.0793 14.8516 84.3225 14.8953 84.5463 14.8953Z" fill="white"/>
<path d="M74.2886 16.6613C73.8118 16.6613 73.3885 16.5592 73.0188 16.3548C72.6588 16.1408 72.3766 15.8489 72.1723 15.4791C71.9777 15.1094 71.8804 14.691 71.8804 14.2239C71.8804 13.3579 72.255 12.6866 73.0042 12.2098C73.7534 11.7233 74.9454 11.3925 76.58 11.2173C76.5703 10.9449 76.5217 10.7065 76.4341 10.5022C76.3465 10.2881 76.2006 10.1178 75.9962 9.99132C75.8016 9.86483 75.534 9.80158 75.1935 9.80158C74.814 9.80158 74.4394 9.87456 74.0697 10.0205C73.6999 10.1665 73.3253 10.3562 72.9458 10.5897L72.1869 9.15939C72.508 8.95506 72.8485 8.77505 73.2085 8.61937C73.5686 8.46369 73.948 8.33719 74.347 8.23989C74.7459 8.13286 75.1594 8.07935 75.5876 8.07935C76.2784 8.07935 76.8573 8.21557 77.3244 8.48801C77.7914 8.76046 78.1417 9.16426 78.3752 9.69941C78.6088 10.2346 78.7255 10.8962 78.7255 11.6844V16.457H76.9741L76.8282 15.5813H76.7552C76.4049 15.8926 76.0254 16.1505 75.6167 16.3548C75.2081 16.5592 74.7654 16.6613 74.2886 16.6613ZM75.0038 14.9829C75.3054 14.9829 75.5778 14.9148 75.8211 14.7785C76.0741 14.6326 76.327 14.4331 76.58 14.1801V12.5455C75.9184 12.6233 75.393 12.7352 75.0038 12.8812C74.6145 13.0271 74.3372 13.2023 74.1718 13.4066C74.0064 13.6012 73.9237 13.8201 73.9237 14.0634C73.9237 14.3845 74.021 14.618 74.2156 14.764C74.4199 14.9099 74.6827 14.9829 75.0038 14.9829Z" fill="white"/>
<path d="M63.1487 20.0036C62.5065 20.0036 61.9276 19.9258 61.4119 19.7701C60.8962 19.6242 60.4875 19.3955 60.1859 19.0841C59.894 18.7825 59.748 18.3884 59.748 17.9019C59.748 17.5614 59.8453 17.2451 60.04 16.9532C60.2346 16.6613 60.5265 16.4132 60.9157 16.2089V16.1359C60.7016 15.9997 60.5216 15.8197 60.3756 15.5959C60.2394 15.3721 60.1713 15.0899 60.1713 14.7494C60.1713 14.4477 60.2589 14.1655 60.434 13.9028C60.6189 13.6304 60.833 13.4066 61.0762 13.2315V13.1731C60.794 12.9687 60.5411 12.6817 60.3173 12.312C60.0935 11.9422 59.9816 11.5141 59.9816 11.0276C59.9816 10.3854 60.1324 9.84537 60.434 9.40751C60.7454 8.96965 61.1541 8.63883 61.66 8.41503C62.166 8.19124 62.7011 8.07935 63.2655 8.07935C63.5087 8.07935 63.7325 8.09881 63.9369 8.13773C64.1509 8.17665 64.3455 8.2253 64.5207 8.28368H67.4543V9.85996H66.0678C66.1748 10.0059 66.2624 10.1859 66.3305 10.4C66.3986 10.614 66.4327 10.8476 66.4327 11.1006C66.4327 11.7136 66.2916 12.2293 66.0094 12.6476C65.7272 13.0563 65.3477 13.3628 64.871 13.5671C64.3942 13.7715 63.859 13.8736 63.2655 13.8736C63.1195 13.8736 62.9541 13.859 62.7693 13.8299C62.5844 13.7909 62.3995 13.7423 62.2146 13.6839C62.1076 13.7812 62.02 13.8834 61.9519 13.9904C61.8935 14.0877 61.8644 14.2239 61.8644 14.3991C61.8644 14.6034 61.9568 14.764 62.1417 14.8807C62.3363 14.9975 62.672 15.0559 63.1487 15.0559H64.5499C65.5326 15.0559 66.2867 15.2213 66.8121 15.5521C67.3376 15.8732 67.6003 16.3889 67.6003 17.0992C67.6003 17.6538 67.4154 18.1452 67.0457 18.5733C66.6856 19.0112 66.1699 19.3566 65.4986 19.6096C64.8369 19.8723 64.0536 20.0036 63.1487 20.0036ZM63.2655 12.5455C63.5087 12.5455 63.7277 12.4871 63.9223 12.3703C64.1169 12.2536 64.2726 12.0833 64.3893 11.8595C64.5061 11.626 64.5645 11.3487 64.5645 11.0276C64.5645 10.7065 64.5061 10.4389 64.3893 10.2248C64.2726 10.001 64.1169 9.83563 63.9223 9.7286C63.7277 9.61184 63.5087 9.55346 63.2655 9.55346C63.032 9.55346 62.8179 9.61184 62.6233 9.7286C62.4287 9.83563 62.273 10.001 62.1563 10.2248C62.0492 10.4389 61.9957 10.7065 61.9957 11.0276C61.9957 11.3487 62.0492 11.626 62.1563 11.8595C62.273 12.0833 62.4287 12.2536 62.6233 12.3703C62.8179 12.4871 63.032 12.5455 63.2655 12.5455ZM63.4698 18.6317C63.8882 18.6317 64.2482 18.5782 64.5499 18.4711C64.8612 18.3641 65.1045 18.223 65.2796 18.0479C65.4548 17.8727 65.5423 17.6781 65.5423 17.4641C65.5423 17.1722 65.4256 16.9727 65.1921 16.8657C64.9585 16.7684 64.6228 16.7197 64.185 16.7197H63.1779C62.9347 16.7197 62.7255 16.71 62.5503 16.6905C62.3752 16.6808 62.2098 16.6565 62.0541 16.6175C61.8692 16.7635 61.733 16.9143 61.6454 17.07C61.5676 17.2354 61.5287 17.4057 61.5287 17.5808C61.5287 17.9117 61.7038 18.1695 62.0541 18.3544C62.4044 18.5392 62.8763 18.6317 63.4698 18.6317Z" fill="white"/>
<path d="M50.9233 16.457V8.28368H52.6748L52.8353 9.36372H52.8791C53.2391 9.01344 53.6332 8.7118 54.0613 8.45882C54.4894 8.20584 54.9808 8.07935 55.5354 8.07935C56.4209 8.07935 57.0631 8.37125 57.462 8.95506C57.8609 9.52914 58.0604 10.3319 58.0604 11.3633V16.457H55.9149V11.626C55.9149 10.9935 55.8225 10.5508 55.6376 10.2978C55.4624 10.0448 55.1705 9.91834 54.7619 9.91834C54.4311 9.91834 54.1391 9.99618 53.8862 10.1519C53.6429 10.3075 53.3705 10.5362 53.0688 10.8378V16.457H50.9233Z" fill="white"/>
<path d="M46.4911 16.457V8.28364H48.6366V16.457H46.4911ZM47.5712 6.95547C47.1917 6.95547 46.89 6.85331 46.6663 6.64897C46.4425 6.43491 46.3306 6.14787 46.3306 5.78786C46.3306 5.43757 46.4425 5.1554 46.6663 4.94133C46.89 4.72727 47.1917 4.62024 47.5712 4.62024C47.9312 4.62024 48.2279 4.72727 48.4615 4.94133C48.695 5.1554 48.8118 5.43757 48.8118 5.78786C48.8118 6.14787 48.695 6.43491 48.4615 6.64897C48.2279 6.85331 47.9312 6.95547 47.5712 6.95547Z" fill="white"/>
<path d="M37.1411 16.457V8.28368H38.8925L39.0531 9.36372H39.0969C39.4569 9.01344 39.851 8.7118 40.2791 8.45882C40.7072 8.20584 41.1986 8.07935 41.7532 8.07935C42.6386 8.07935 43.2808 8.37125 43.6798 8.95506C44.0787 9.52914 44.2782 10.3319 44.2782 11.3633V16.457H42.1327V11.626C42.1327 10.9935 42.0402 10.5508 41.8554 10.2978C41.6802 10.0448 41.3883 9.91834 40.9797 9.91834C40.6488 9.91834 40.3569 9.99618 40.1039 10.1519C39.8607 10.3075 39.5882 10.5362 39.2866 10.8378V16.457H37.1411Z" fill="white"/>
<path d="M30.769 16.457V8.28368H32.5205L32.681 9.7286H32.7248C33.0264 9.19345 33.3816 8.78478 33.7903 8.50261C34.1989 8.22043 34.6173 8.07935 35.0454 8.07935C35.279 8.07935 35.4638 8.09881 35.6001 8.13773C35.746 8.16692 35.8774 8.20584 35.9941 8.25449L35.6438 10.1081C35.4882 10.0692 35.3471 10.04 35.2206 10.0205C35.1038 9.99132 34.953 9.97672 34.7681 9.97672C34.4568 9.97672 34.1259 10.0983 33.7757 10.3416C33.4351 10.5849 33.1481 10.9984 32.9145 11.5822V16.457H30.769Z" fill="white"/>
<path d="M24.1455 16.6613C23.6687 16.6613 23.2455 16.5592 22.8757 16.3548C22.5157 16.1408 22.2335 15.8489 22.0292 15.4791C21.8346 15.1094 21.7373 14.691 21.7373 14.2239C21.7373 13.3579 22.1119 12.6866 22.8611 12.2098C23.6104 11.7233 24.8023 11.3925 26.437 11.2173C26.4272 10.9449 26.3786 10.7065 26.291 10.5022C26.2034 10.2881 26.0575 10.1178 25.8532 9.99132C25.6586 9.86483 25.391 9.80158 25.0504 9.80158C24.6709 9.80158 24.2963 9.87456 23.9266 10.0205C23.5568 10.1665 23.1822 10.3562 22.8028 10.5897L22.0438 9.15939C22.3649 8.95506 22.7055 8.77505 23.0655 8.61937C23.4255 8.46369 23.805 8.33719 24.2039 8.23989C24.6028 8.13286 25.0164 8.07935 25.4445 8.07935C26.1353 8.07935 26.7143 8.21557 27.1813 8.48801C27.6484 8.76046 27.9987 9.16426 28.2322 9.69941C28.4657 10.2346 28.5825 10.8962 28.5825 11.6844V16.457H26.831L26.6851 15.5813H26.6121C26.2618 15.8926 25.8823 16.1505 25.4737 16.3548C25.065 16.5592 24.6223 16.6613 24.1455 16.6613ZM24.8607 14.9829C25.1623 14.9829 25.4348 14.9148 25.678 14.7785C25.931 14.6326 26.184 14.4331 26.437 14.1801V12.5455C25.7753 12.6233 25.2499 12.7352 24.8607 12.8812C24.4715 13.0271 24.1942 13.2023 24.0288 13.4066C23.8633 13.6012 23.7806 13.8201 23.7806 14.0634C23.7806 14.3845 23.8779 14.618 24.0725 14.764C24.2769 14.9099 24.5396 14.9829 24.8607 14.9829Z" fill="white"/>
<path d="M17.5125 16.6613C16.7535 16.6613 16.0676 16.4911 15.4546 16.1505C14.8416 15.8099 14.3502 15.3186 13.9805 14.6764C13.6204 14.0342 13.4404 13.2655 13.4404 12.3703C13.4404 11.7087 13.5426 11.1151 13.7469 10.5897C13.961 10.0643 14.248 9.61671 14.608 9.24696C14.9778 8.86749 15.3865 8.58045 15.834 8.38584C16.2914 8.18151 16.7633 8.07935 17.2498 8.07935C17.999 8.07935 18.6266 8.24962 19.1326 8.59018C19.6385 8.921 20.018 9.38318 20.271 9.97672C20.5337 10.5605 20.6651 11.2319 20.6651 11.9909C20.6651 12.1855 20.6553 12.3752 20.6359 12.5601C20.6164 12.7352 20.5921 12.8763 20.5629 12.9833H15.5275C15.5859 13.4212 15.7173 13.7909 15.9216 14.0926C16.1259 14.3942 16.3887 14.6229 16.7098 14.7785C17.0309 14.9245 17.3957 14.9975 17.8044 14.9975C18.1352 14.9975 18.4466 14.9537 18.7385 14.8661C19.0304 14.7688 19.3272 14.6277 19.6288 14.4429L20.3586 15.7564C19.9596 16.0289 19.512 16.2478 19.0158 16.4132C18.5196 16.5786 18.0185 16.6613 17.5125 16.6613ZM15.4838 11.5384H18.8261C18.8261 10.9935 18.6996 10.5605 18.4466 10.2394C18.2033 9.90861 17.8141 9.7432 17.279 9.7432C16.9968 9.7432 16.7292 9.81131 16.4762 9.94753C16.2233 10.074 16.0092 10.2735 15.834 10.5459C15.6589 10.8086 15.5421 11.1395 15.4838 11.5384Z" fill="white"/>
<path d="M5.9873 16.4569V5.64185H8.1474V14.6471H12.5406V16.4569H5.9873Z" fill="white"/>
</svg>
