<svg width="1000" height="1001" viewBox="0 0 1000 1001" fill="none" xmlns="http://www.w3.org/2000/svg">
<rect width="1000" height="1000" transform="translate(0 0.125732)" fill="white"/>
<rect x="199.954" y="567.739" width="621.871" height="387.261" rx="79" fill="#3DA0D4"/>
<path d="M451.981 882.261V640.479L645.612 760.986L451.981 882.261Z" fill="#F5F5F5"/>
<path fill-rule="evenodd" clip-rule="evenodd" d="M305.287 170.546V233.247H389.197V170.546H620.639V233.247H703.627V170.546H910.173V95.8573H703.627V35H620.639V95.8573H389.197V35H305.287V95.8573H104.274V170.546H305.287Z" fill="black"/>
<path fill-rule="evenodd" clip-rule="evenodd" d="M941.027 478.521H602.198C566.237 500.651 527.509 520.937 488.781 541.222L277.625 631.586C225.988 650.028 129.666 683.61 77.1073 698.363C68.8085 678.999 59.0849 647.138 48.2236 624.494C177.927 587.205 329.261 533.846 442.677 478.521H77.1073V404.754H461.503V335.598H197.954V264.598H461.503V203.741H546.334V264.598H705.471V312.546C740.51 282.118 771.861 250.767 800.445 217.572L870.523 258.144C824.419 311.624 770.938 360.495 711.925 404.754H941.027V478.521ZM578.224 404.754H546.334V335.598H676.886C645.536 359.572 613.263 383.547 578.224 404.754Z" fill="black"/>
</svg>
