<svg width="1000" height="1000" viewBox="0 0 1000 1000" fill="none" xmlns="http://www.w3.org/2000/svg">
<path fill-rule="evenodd" clip-rule="evenodd" d="M833.535 660.367C773.788 784.403 646.89 870 500 870C295.655 870 130 704.345 130 500C130 295.655 295.655 130 500 130C646.891 130 773.789 215.598 833.535 339.634H973.729C906.9 142.151 720.051 0 500 0C223.858 0 0 223.858 0 500C0 776.142 223.858 1000 500 1000C720.05 1000 906.899 857.849 973.728 660.367H833.535ZM1000 500.612C1000 500.408 1000 500.204 1000 500C1000 499.796 1000 499.592 1000 499.388V500.612Z" fill="black"/>
<path d="M346.355 707.987V291.771C346.355 260.388 380.846 241.228 407.491 257.811L740.816 465.258C765.927 480.886 765.979 517.419 740.913 533.118L407.588 741.886C380.947 758.572 346.355 739.421 346.355 707.987Z" fill="#3DA0D4"/>
</svg>
