<svg width="81" height="26" viewBox="0 0 81 26" fill="none" xmlns="http://www.w3.org/2000/svg">
<g clip-path="url(#clip0_1305_5496)">
<path d="M80.7299 2.25984C80.7367 2.24132 80.7282 2.22071 80.7101 2.21274C80.2129 1.99337 73.5697 -0.907073 68.1453 3.13111C68.1453 3.13111 64.228 6.02389 65.7342 10.7849L65.7345 10.7858C65.746 10.8166 66.4577 13.6786 70.9775 15.6071L70.9782 15.6073C71.0007 15.6147 73.7506 16.7525 73.2087 18.5584C73.2082 18.56 73.2078 18.5614 73.2072 18.5629C73.1835 18.624 72.6633 19.8866 70.1343 19.8866C70.1343 19.8866 68.0251 19.8866 65.7349 19.043L65.7343 19.0427C65.7186 19.0361 64.5381 18.5374 64.529 18.5606L62.7314 23.3554C62.7252 23.3714 62.7302 23.3893 62.7441 23.3993C62.996 23.5791 65.305 25.1267 70.074 25.0699C70.074 25.0699 77.0052 25.0096 78.9942 20.0674C78.9942 20.0674 80.8618 16.0912 77.7305 12.8369C77.7293 12.8356 77.7281 12.8344 77.7271 12.833C77.6853 12.7795 76.688 11.5337 73.2686 9.94189C73.2619 9.93827 71.7013 9.09513 71.7013 7.77201C71.7013 7.77201 71.7013 6.38577 73.63 6.14468C73.63 6.14468 76.7409 5.72591 78.8716 7.06999C78.9037 7.09023 78.946 7.07629 78.9592 7.04072L80.7299 2.25984Z" fill="#646464"/>
<path d="M64.9573 1.56396H50.6037C50.5774 1.56396 50.5549 1.58273 50.5501 1.60857L46.291 24.7041C46.2848 24.7376 46.3105 24.7685 46.3445 24.7685H61.1807C61.2071 24.7685 61.2298 24.7495 61.2343 24.7234L62.1192 19.7094C62.1251 19.676 62.0994 19.6454 62.0655 19.6454H53.0956C53.0613 19.6454 53.0356 19.6141 53.0421 19.5805L53.8647 15.3499C53.8697 15.3243 53.8921 15.3059 53.9182 15.3059H61.845C61.8709 15.3059 61.8931 15.2877 61.8984 15.2624L62.9004 10.4291C62.9074 10.3953 62.8816 10.3636 62.8471 10.3636H54.843C54.8089 10.3636 54.7832 10.3326 54.7895 10.2991L55.4923 6.55067C55.4971 6.5249 55.5196 6.50623 55.5458 6.50623H64.0143C64.0403 6.50623 64.0628 6.48776 64.0678 6.46217L65.0108 1.6289C65.0174 1.59525 64.9916 1.56396 64.9573 1.56396Z" fill="#646464"/>
<path d="M43.0429 1.56396H48.7182C48.7522 1.56396 48.7779 1.59485 48.7718 1.62834L44.5126 24.7239C44.5078 24.7497 44.4853 24.7685 44.459 24.7685H38.7838C38.7497 24.7685 38.724 24.7376 38.7302 24.7041L42.9893 1.60858C42.9941 1.58273 43.0166 1.56396 43.0429 1.56396Z" fill="#646464"/>
<path d="M41.8229 1.56396H35.0885C35.0686 1.56396 35.0504 1.57495 35.0412 1.59251L30.9605 9.33991C30.9379 9.38278 30.8745 9.37589 30.8617 9.32916L28.7385 1.60325C28.7321 1.58005 28.711 1.56397 28.687 1.56397H22.6557C22.6188 1.56397 22.593 1.60049 22.6053 1.63528L26.6089 12.929C26.6147 12.9455 26.6122 12.9637 26.602 12.9779L21.275 20.4358C21.2465 20.4757 21.1838 20.4594 21.1784 20.4106L19.0896 1.61151C19.0866 1.58444 19.0637 1.56396 19.0364 1.56396H11.6446C11.6239 1.56396 11.605 1.57593 11.5962 1.59467L0.737321 24.6923C0.720656 24.7277 0.746521 24.7685 0.785691 24.7685H6.87327C6.89513 24.7685 6.91478 24.7552 6.9229 24.7349L14.294 6.30703C14.3153 6.25398 14.3937 6.26674 14.397 6.32378L15.4651 24.7181C15.4667 24.7464 15.4901 24.7685 15.5184 24.7685H25.1393C25.1592 24.7685 25.1775 24.7574 25.1867 24.7398L29.3897 16.689C29.4119 16.6463 29.4748 16.6525 29.4883 16.6986L31.8505 24.7301C31.8572 24.7529 31.8781 24.7685 31.9018 24.7685H38.113C38.1504 24.7685 38.1762 24.7311 38.163 24.6961L33.7404 12.9821C33.7341 12.9653 33.7365 12.9465 33.747 12.932L41.8662 1.64863C41.8917 1.61327 41.8664 1.56396 41.8229 1.56396Z" fill="#646464"/>
<path d="M2.50952 13.0155C2.50952 13.0155 4.01631 10.6047 10.4654 14.7634C10.4654 14.7634 16.1309 18.6208 14.6844 21.333C14.6844 21.333 13.1776 23.9247 6.66825 19.7659C6.66825 19.7659 0.882194 15.9688 2.50952 13.0155Z" fill="#9F302B"/>
</g>
<defs>
<clipPath id="clip0_1305_5496">
<rect width="80" height="25" fill="white" transform="translate(0.732178 0.610596)"/>
</clipPath>
</defs>
</svg>
