<svg width="186" height="106" viewBox="0 0 186 106" fill="none" xmlns="http://www.w3.org/2000/svg">
<path d="M34.7 10.54H51.38V12.48H34.7V10.54ZM35.44 25.28H50.74V27.24H35.44V25.28ZM38.88 13.34H47.04V15.02H38.88V13.34ZM38.88 15.9H47.04V17.58H38.88V15.9ZM33.64 18.46H52.34V20.42H33.64V18.46ZM38.18 22.1H47.84V23.98H38.18V22.1ZM37.46 9.02H39.88V19.54H37.46V9.02ZM46.18 9.04H48.62V19.54H46.18V9.04ZM41.72 20.84H44.18V26.42H41.72V20.84ZM38.7 19.02L40.7 19.76C39.42 21.88 37.26 23.76 34.98 24.78C34.64 24.22 33.96 23.38 33.46 22.94C35.54 22.18 37.64 20.64 38.7 19.02ZM47.38 19.02C48.44 20.56 50.5 22 52.56 22.74C52.04 23.18 51.34 24.04 50.98 24.6C48.82 23.64 46.74 21.74 45.48 19.74L47.38 19.02ZM53.84 9.94H60.78V12.12H53.84V9.94ZM55.96 16.14H60.36V25.26H55.96V23.2H58.36V18.22H55.96V16.14ZM55.78 11.1L57.98 11.44C57.44 15.7 56.46 19.9 54.56 22.62C54.34 22.08 53.7 20.9 53.3 20.36C54.74 18.16 55.42 14.68 55.78 11.1ZM54.98 16.14H56.94V26.72H54.98V16.14ZM60.88 10.96H66.12V12.78H60.88V10.96ZM60.8 17.98H70.86V19.92H60.8V17.98ZM66.32 21.6H70.88V23.5H66.32V21.6ZM62.74 9.02H64.68V17.56H62.74V9.02ZM62.58 12.08L63.94 12.82C63.36 14.44 62.24 16.28 61.1 17.38C60.92 16.9 60.46 16.14 60.12 15.76C61.08 14.98 62.08 13.46 62.58 12.08ZM70.18 12.08C70.68 13.5 71.62 15.06 72.66 15.84C72.26 16.14 71.7 16.74 71.42 17.18C70.36 16.16 69.46 14.22 69 12.48L70.18 12.08ZM64.64 12.96C65 13.2 66.18 14.1 66.46 14.38L65.4 15.72C65.04 15.2 64.14 14.12 63.7 13.68L64.64 12.96ZM66.44 10.96H72.3V12.78H66.44V10.96ZM68.14 9.02H70.12V17.56H68.14V9.02ZM68.14 12.08L69.42 12.78C68.84 14.44 67.66 16.26 66.46 17.28C66.28 16.84 65.86 16.14 65.52 15.76C66.58 15.02 67.62 13.52 68.14 12.08ZM70.2 17.98H70.54L70.88 17.88L72.4 18.34C72.06 19.44 71.6 20.68 71.22 21.52L69.42 20.9C69.68 20.2 70.02 19.1 70.2 18.22V17.98ZM63.7 22.12C64.56 25.06 66.34 25.54 68.72 25.56C69.32 25.56 71.82 25.54 72.62 25.52C72.36 26 72.08 26.96 72 27.52H68.58C65.38 27.52 63.3 26.7 62.14 22.64L63.7 22.12ZM62.02 20.44H64.12C63.9 23.44 63.34 26.14 60.86 27.82C60.6 27.34 60 26.6 59.52 26.24C61.5 24.94 61.86 22.74 62.02 20.44ZM65.36 18.58H67.56V26.52L65.36 25.56V18.58ZM82.22 10.22C82.1 10.74 81.98 11.38 81.86 11.88C81.68 12.78 81.42 14.02 81.22 15.04C80.56 17.86 78.94 23.56 76.86 26.94L74.24 25.9C76.62 22.7 78.12 17.42 78.68 14.9C79.06 13.1 79.28 11.4 79.26 9.9L82.22 10.22ZM89.12 12.08C90.34 13.82 92.02 17.62 92.64 19.54L90.1 20.72C89.58 18.48 88.16 14.88 86.72 13.1L89.12 12.08ZM74.12 14.32C74.84 14.36 75.52 14.34 76.26 14.32C77.86 14.28 81.64 13.84 83.14 13.84C85.24 13.84 86.74 14.78 86.74 17.68C86.74 20.04 86.46 23.28 85.62 25C84.94 26.4 83.84 26.84 82.34 26.84C81.56 26.84 80.62 26.72 79.92 26.56L79.5 23.92C80.28 24.14 81.42 24.34 81.94 24.34C82.62 24.34 83.12 24.14 83.44 23.48C84 22.36 84.26 19.92 84.26 17.96C84.26 16.36 83.56 16.12 82.32 16.12C81.12 16.12 77.68 16.56 76.58 16.7C76 16.78 74.96 16.92 74.36 17.02L74.12 14.32ZM99.66 9.9C101.56 10.5 105.92 11.28 107.68 11.46L107.08 13.92C105.04 13.64 100.6 12.72 99.04 12.32L99.66 9.9ZM99.8 13.92C99.52 15.04 99.18 17.46 99.04 18.62C100.84 17.3 102.84 16.7 104.94 16.7C108.44 16.7 110.48 18.86 110.48 21.28C110.48 24.94 107.58 27.74 99.28 27.02L98.5 24.4C104.52 25.24 107.68 23.78 107.68 21.22C107.68 19.92 106.46 18.98 104.7 18.98C102.44 18.98 100.42 19.82 99.16 21.34C98.8 21.76 98.58 22.08 98.42 22.48L96.1 21.92C96.5 19.96 96.98 16.04 97.1 13.56L99.8 13.92ZM117.66 15.86H126.88V17.92H117.66V15.86ZM114.08 20.34H131.98V22.56H114.08V20.34ZM121.78 19.06H124.24V25.24C124.24 26.48 123.94 27.1 122.98 27.46C122.04 27.78 120.76 27.82 119.06 27.82C118.9 27.14 118.46 26.12 118.08 25.5C119.36 25.54 120.86 25.54 121.26 25.54C121.66 25.54 121.78 25.44 121.78 25.16V19.06ZM126.1 15.86H126.7L127.2 15.74L128.72 16.9C127.34 18.38 125.36 19.94 123.4 20.88C123.12 20.48 122.48 19.82 122.12 19.5C123.66 18.7 125.36 17.28 126.1 16.3V15.86ZM114.32 12.2H131.76V17.1H129.38V14.32H116.58V17.1H114.32V12.2ZM128.18 9.16L130.78 9.92C129.86 11.24 128.82 12.6 128 13.48L126.04 12.76C126.8 11.78 127.7 10.28 128.18 9.16ZM115.66 10.14L117.7 9.22C118.42 10 119.22 11.08 119.54 11.86L117.36 12.86C117.08 12.12 116.34 10.98 115.66 10.14ZM120.7 9.7L122.82 8.9C123.46 9.78 124.14 11 124.4 11.8L122.12 12.68C121.92 11.88 121.3 10.62 120.7 9.7ZM142.06 14.94C142.54 14.6 143.04 14.24 143.32 14.02C142.46 13.42 140.84 12.6 139.32 12.06L140.8 10.22C142.46 10.82 144.6 11.74 145.96 12.6L146.56 14.16C146.04 14.6 144.48 15.84 143.68 16.4L142.06 14.94ZM138.66 24.16C139.76 24.46 140.78 24.62 141.74 24.62C142.76 24.62 143.48 24.26 143.48 23.34C143.48 22.12 142.08 20.3 141.2 19.42C140.7 18.94 140 18.32 139.36 17.84L141.3 16.2C141.9 16.8 142.42 17.3 142.92 17.82C145.08 19.98 146.26 21.76 146.26 23.62C146.26 26.3 144.34 27.1 142.28 27.1C141.16 27.1 140.02 26.98 139.04 26.78L138.66 24.16ZM149.74 25.7C149.26 23.7 147.94 20.78 146.6 19.1L148.76 17.94C150 19.48 151.56 22.52 152.18 24.4L149.74 25.7ZM139.88 21.9C138.76 23.08 136.92 24.7 134.8 26.02L133.28 23.86C135 22.92 137.18 21.24 138.36 19.94L139.88 21.9ZM148.6 12.4C149.1 13.14 149.82 14.42 150.18 15.16L148.58 15.84C148.18 15.02 147.56 13.84 147.02 13.06L148.6 12.4ZM150.96 11.5C151.5 12.26 152.24 13.52 152.58 14.22L151 14.92C150.58 14.08 149.94 12.9 149.38 12.16L150.96 11.5Z" fill="black"/>
<rect x="1.5" y="41.5" width="63" height="63" fill="white"/>
<path d="M15.04 71.64H51.24V76.6H15.04V71.64ZM18.32 65.48H41.76V70.16H18.32V65.48ZM26.6 83.68H43.36V87.2H26.6V83.68ZM26.6 88.48H43.36V92.8H26.6V88.48ZM27.64 63.68H33.4V74.68H27.64V63.68ZM45.2 64.12L49.96 66.8C42.24 76.32 29.44 82.48 16.32 85.92C15.76 84.68 14.36 82.16 13.48 81C26.44 78.24 38.6 72.56 45.2 64.12ZM23.08 55.8H28.76V64.64H23.08V55.8ZM36.96 55.8H42.64V64.64H36.96V55.8ZM15.12 57.6H50.96V62.64H15.12V57.6ZM28.08 78.16H44.52V82.48H28.08V93.72H22.28V81.52L25.8 78.16H28.08ZM42.04 78.16H47.8V93.64H42.04V78.16Z" fill="black"/>
<rect x="1.5" y="41.5" width="63" height="63" stroke="black" stroke-width="3"/>
<rect x="61.5" y="41.5" width="63" height="63" fill="white"/>
<path d="M92.84 62.24H112.12V67.76H90.08L92.84 62.24ZM98.24 71.08H111.04V76.36H98.24V71.08ZM98.2 79.96H111.56V85.36H98.2V79.96ZM95.28 64.08H101.28V93.8H95.28V64.08ZM93.4 56.12L99 57.6C96.76 64.16 93.12 71 89.44 75.2C88.52 74.12 86.28 72.04 85.04 71.12C88.52 67.6 91.64 61.84 93.4 56.12ZM82.28 55.96L87.92 57.76C85.36 64.6 81.12 72.16 76.68 76.76C76.16 75.32 74.56 71.96 73.56 70.48C77.04 67 80.36 61.48 82.28 55.96ZM78.36 67.44L84.24 61.56V61.6V93.76H78.36V67.44Z" fill="black"/>
<rect x="61.5" y="41.5" width="63" height="63" stroke="black" stroke-width="3"/>
<rect x="121.5" y="41.5" width="63" height="63" fill="white"/>
<path d="M153.32 59.44H171.16V64.28H153.32V59.44ZM155.88 78.72H170.48V82.36H155.88V78.72ZM155.96 83.56H170.56V87.12H155.96V83.56ZM155.24 88.48H172V92.68H155.24V88.48ZM148.72 66.36H171.96V71.24H148.72V66.36ZM162.32 70.6L167.92 71.6C166.88 73.52 165.88 75.2 165.08 76.4L160.24 75.4C161 74 161.88 72.04 162.32 70.6ZM160.56 76.32H165.68V90.56H160.56V76.32ZM157.48 73.6H171.36V77.52H157.48V93.76H152.16V76.8L155.32 73.6H157.48ZM152.96 55.56L158.24 56.8C157 60.76 154.84 64.8 152.6 67.28C151.6 66.4 149.32 64.92 148.08 64.28C150.24 62.2 152.04 58.84 152.96 55.56ZM157.44 61.64L162.84 62.88C160.4 71.2 156.08 78.6 150.6 83.12C149.84 82.04 147.84 79.8 146.68 78.8C151.8 75.12 155.52 68.8 157.44 61.64ZM134.64 63.88H148V69.24H134.64V63.88ZM139.08 55.8H144.32V93.8H139.08V55.8ZM139 67.68L142.12 68.76C141.04 75.08 138.96 82.72 136.12 86.88C135.64 85.32 134.44 83.08 133.64 81.72C136.12 78.32 138.16 72.4 139 67.68ZM143.92 68.52C144.84 69.56 148.16 74.2 148.84 75.28L145.96 79.4C145 77 142.76 72.76 141.6 70.8L143.92 68.52Z" fill="black"/>
<rect x="121.5" y="41.5" width="63" height="63" stroke="black" stroke-width="3"/>
</svg>
