<svg width="468" height="410" viewBox="0 0 468 410" fill="none" xmlns="http://www.w3.org/2000/svg">
<rect width="468" height="410" fill="white"/>
<path d="M371.167 174.953C355.539 159.278 334.76 150.647 312.658 150.647C290.555 150.647 269.775 159.278 254.15 174.951L191.166 238.113C181.598 247.708 168.879 252.991 155.348 252.991C141.815 252.991 129.096 247.708 119.526 238.111L99.3815 217.909L119.528 197.705C129.096 188.109 141.815 182.826 155.348 182.826C168.879 182.826 181.598 188.109 191.166 197.707L207.024 213.608L229.714 190.855L213.857 174.953C198.229 159.278 177.45 150.647 155.348 150.647C133.244 150.647 112.465 159.278 96.8392 174.951L54 217.909L96.8371 260.864C112.465 276.539 133.244 285.17 155.348 285.17C177.45 285.17 198.229 276.539 213.857 260.866L276.838 197.705C286.406 188.109 299.126 182.826 312.658 182.826C326.189 182.826 338.909 188.109 348.476 197.707L368.623 217.909L348.476 238.113C338.909 247.708 326.189 252.991 312.658 252.991C299.126 252.991 286.406 247.708 276.836 238.111L260.979 222.208L238.288 244.961L254.147 260.864C269.775 276.539 290.555 285.17 312.658 285.17C334.76 285.17 355.539 276.539 371.167 260.866L414 217.909L371.167 174.953Z" fill="#8FC31F"/>
<path d="M250.044 357.678H217.956V265.341L234 249.261L250.044 265.341V357.678Z" fill="#8FC31F"/>
<path d="M211.893 357.678H141.489C138.211 357.678 136.15 354.132 137.767 351.272L148.034 333.109C150.693 328.405 155.669 325.498 161.061 325.498H211.893V357.678Z" fill="#7A6A56"/>
<path d="M326.485 357.678H256.082V325.498H306.914C312.305 325.498 317.281 328.405 319.94 333.109L330.207 351.272C331.824 354.132 329.764 357.678 326.485 357.678Z" fill="#7A6A56"/>
<path d="M372.127 179.294C366.694 196.834 345.921 210.541 319.34 214.126L303.586 216.25C300.852 216.619 300.851 219.198 303.586 219.567L319.341 221.691C345.921 225.277 366.694 238.984 372.127 256.523" fill="#8FC31F"/>
<path d="M95.8738 179.294C101.307 196.834 122.08 210.541 148.661 214.126L164.414 216.25C167.149 216.619 167.149 219.198 164.414 219.567L148.66 221.691C122.079 225.277 101.307 238.984 95.8741 256.523" fill="#8FC31F"/>
<path d="M275.073 98.8345L262.331 120.162L258.641 113.985H257.759C261.616 113.985 264.753 110.779 264.753 106.839C264.753 102.899 261.616 99.693 257.759 99.693H227.338L230.249 104.566H236.18V123.619H241.039V104.566H247.329V123.619H252.188V112.663L258.733 123.619H265.93L275.073 108.316L284.216 123.619H289.88L275.073 98.8345ZM252.188 104.566H257.759C258.936 104.566 259.894 105.585 259.894 106.839C259.894 108.092 258.936 109.112 257.759 109.112H252.188V104.566Z" fill="#004098"/>
<path d="M227.707 106.839C227.707 102.899 224.57 99.693 220.714 99.693H205.133L208.044 104.566H210.208V123.619H215.067V112.538L221.687 123.619H227.351L221.564 113.933C225.021 113.503 227.707 110.485 227.707 106.839ZM215.067 109.112V104.566H220.714C221.891 104.566 222.849 105.585 222.849 106.839C222.849 108.093 221.891 109.112 220.714 109.112H215.067Z" fill="#004098"/>
<path d="M186.173 123.619L195.316 108.316L204.458 123.619H210.123L195.316 98.8345L180.509 123.619H186.173Z" fill="#004098"/>
<path d="M200.088 123.619L195.316 115.631L190.544 123.619H200.088Z" fill="#00A0E9"/>
<path d="M279.93 123.619L275.158 115.631L270.386 123.619H279.93Z" fill="#00A0E9"/>
<path d="M178.858 97.6893C178.438 96.9433 178.886 96.172 179.741 96.172H225.24L222.329 91.2993H179.741C177.307 91.2993 175.334 92.2915 174.327 94.0215C173.321 95.7516 173.431 97.9626 174.629 100.088L179.382 108.519C179.803 109.265 179.354 110.036 178.499 110.036H169.989L167.078 114.909H178.499C180.934 114.909 182.907 113.917 183.913 112.187C184.92 110.457 184.81 108.246 183.612 106.12L178.858 97.6893Z" fill="#00A0E9"/>
<path d="M289.577 106.147C289.157 105.401 289.605 104.63 290.46 104.63H298.011L300.922 99.7573H290.46C288.026 99.7573 286.052 100.749 285.046 102.48C284.04 104.21 284.15 106.421 285.348 108.546L295.411 125.669C295.832 126.415 295.383 127.187 294.528 127.187H258.129L255.218 132.059H294.528C296.962 132.059 298.936 131.067 299.942 129.337C300.948 127.607 300.839 125.396 299.64 123.271L289.577 106.147Z" fill="#00A0E9"/>
<path d="M110.572 59.7341H105.696V65.9111H111.471V68.5624H87.2693V65.9111H93.1721V59.7341H88.1679V57.1081H93.1721V52.6826H95.8672V57.1081H102.976V52.6826H105.696V57.1081H110.572L110.572 59.7341ZM96.8164 70.9289C94.3013 73.7353 92.8641 75.0723 89.5025 77.0044L87.4233 74.6873C90.4004 73.5294 92.6328 71.5466 94.3273 69.4876L96.8164 70.9289ZM102.976 59.7341H95.8672V65.9111H102.976V59.7341ZM109.084 77.0297C105.978 74.9707 104.336 73.6846 102.077 70.9289L104.336 69.4368C105.927 71.2391 108.622 73.3743 111.214 74.5843L109.084 77.0297Z" fill="#231815"/>
<path d="M115.685 62.6167H120.998V69.4114C120.998 72.6804 124.258 73.7099 126.696 73.7099H139.938L139.399 76.2569H126.593C124.591 76.2569 121.948 75.7168 120.434 73.2981C119.869 74.0428 118.715 75.5377 116.712 77.0044L115.327 74.1217C116.404 73.5548 117.483 72.7312 118.407 71.8822V65.2158H115.685L115.685 62.6167ZM118.021 52.9647C119.176 54.1747 120.716 55.8219 121.897 57.5975L119.638 59.3222C118.329 57.2379 117.277 55.8981 115.993 54.5611L118.021 52.9647ZM127.363 55.6922H123.077V53.557H138.091V55.6922C137.423 56.2084 136.448 56.9798 133.317 58.3943H138.733V70.5692C138.733 72.3956 137.68 72.7058 136.653 72.7058H133.625L133.163 70.2858H135.678C136.269 70.2858 136.319 69.9515 136.319 69.5397V68.2775H132.163V72.4745H129.775V68.2775H125.72V72.7058H123.282V58.3943H128.159C127.363 57.8302 127.03 57.6497 126.131 57.1857L127.363 55.6922ZM125.72 60.4801V62.3332H129.775V60.4801H125.72ZM125.72 64.2893V66.1931H129.775V64.2893H125.72ZM127.825 55.6922C128.8 56.2845 129.749 56.953 130.699 57.6243C131.059 57.4691 132.676 56.7471 134.19 55.6922H127.825ZM132.163 60.4801V62.3332H136.319V60.4801H132.163ZM132.163 64.2893V66.1931H136.319V64.2893H132.163Z" fill="#231815"/>
<path d="M165.763 53.7122V76.1554H145.54V53.7122H165.763ZM148.235 60.1712H163.017V56.2591H148.235V60.1712ZM148.235 62.5391V66.6839H163.017V62.5391H148.235ZM148.235 69.1279V73.5802H163.017V69.1279H148.235Z" fill="#231815"/>
<path d="M187.686 52.9647C187.506 53.9434 187.352 54.6119 186.839 56.2591H195.231C195.231 61.2261 195.128 67.1973 194.999 69.0758C194.564 75.7943 194.025 76.7985 190.663 76.7985H186.634L186.146 74.0428H190.227C191.151 74.0428 191.767 74.0174 191.997 72.4491C192.51 68.922 192.613 62.4362 192.613 58.8061H185.889C184.683 61.4574 183.913 62.7182 182.707 64.1863L181.218 62.9509V75.2528H172.364V56.2591H174.981C175.367 55.1789 175.597 54.3806 175.855 52.6827L178.472 52.8886C178.164 54.4314 178.011 54.9476 177.523 56.2591H181.218V61.4574C183.323 58.7553 184.323 56.104 184.991 52.6037L187.686 52.9647ZM178.703 58.7553H174.879V64.2893H178.703V58.7553ZM178.703 66.6839H174.879V72.7312H178.703V66.6839ZM187.634 70.4155C186.762 67.7896 185.889 65.8603 184.298 63.3359L186.582 62.0497C187.968 63.9804 189.02 65.8857 190.227 68.9742L187.634 70.4155Z" fill="#231815"/>
<path d="M223.93 56.4904H213.253V57.7258H221.825V62.7718H213.253V63.9028H222.364V67.0421H224.084V69.2309H222.364V72.3702H213.253V74.2487C213.253 75.5884 212.586 76.7984 211.021 76.7984H206.375L205.991 74.2487H209.866C210.558 74.2487 210.661 74.0428 210.661 73.4518V72.3702H201.371V70.4663H210.661V69.1279H199.882V67.1465H210.661V65.8603H201.499V63.9028H210.661V62.7718H202.32V57.7258H210.661V56.4904H200.165V54.3552H210.661V52.708H213.253V54.3552H223.93V56.4904ZM210.661 59.5535H204.912V60.9948H210.661V59.5535ZM219.156 59.5535H213.253V60.9948H219.156V59.5535ZM219.618 65.8603H213.253V67.1465H219.618V65.8603ZM219.695 69.1279H213.253V70.4663H219.695V69.1279Z" fill="#231815"/>
<path d="M250.807 76.412C248.035 75.4841 244.801 74.3276 241.516 71.3153V76.7195H238.924V71.3407C237.281 72.782 235.074 74.5335 229.659 76.3867L228.325 74.0964C233.637 72.4745 235.844 70.9289 236.999 70.1053H228.299V67.9701H238.924V66.4244H230.095V64.4444H238.924V62.8987H229.557V60.7889H234.766C234.664 60.3771 234.304 59.1925 234.074 58.7807H228.299V56.568H232.328C232.148 56.183 231.327 54.4314 230.839 53.3765L233.508 52.6037C234.15 53.8391 234.535 54.8686 235.048 56.568H236.614V52.7842H239.129V56.568H241.362V52.7842H243.877V56.568H245.545C246.032 55.5117 246.674 53.7122 246.956 52.6037L249.625 53.3765C249.549 53.6078 248.984 55.2042 248.214 56.568H252.166V58.7807H246.34C246.212 59.1164 245.724 60.5069 245.622 60.7889H251.14V62.8987H241.516V64.4444H250.549V66.4244H241.516V67.9701H252.166V70.1053H243.466C246.495 72.3702 249.138 73.2981 252.294 74.0696L250.807 76.412ZM242.902 60.7889C243.081 60.3771 243.287 59.8102 243.518 58.7807H236.793C236.922 59.0656 237.384 60.4801 237.512 60.7889H242.902Z" fill="#231815"/>
<path d="M265.132 64.7518C265.132 66.399 263.798 67.815 262.078 67.815C260.384 67.815 259.023 66.4244 259.023 64.7518C259.023 63.0285 260.435 61.7155 262.078 61.7155C263.772 61.7155 265.132 63.0792 265.132 64.7518Z" fill="#231815"/>
<path d="M280.689 74.9453C281.459 74.4292 282.409 73.8115 283.64 72.4224C279.534 73.5294 273.246 74.5335 271.886 74.7394L271.578 72.0881C271.912 72.0627 272.58 71.9838 273.118 71.8822V53.7122H282.46V70.3633C283.051 70.235 283.23 70.1842 283.666 70.0545L283.717 72.3194C284.718 71.1869 285.412 69.9515 285.822 68.6132C286.566 66.1931 287.054 63.1568 287.157 60.6338H283.359V58.0093H287.182V52.708H289.8V58.0093H295.215C295.241 61.4828 295.112 72.7566 293.855 75.305C293.393 76.2315 292.777 76.7985 291.391 76.7985H288.183L287.747 74.0696H290.364C291.083 74.0696 291.442 74.0428 291.648 73.3997C292.443 71.0332 292.469 63.0285 292.495 60.6338H289.774C289.235 69.3606 287.644 72.8342 282.845 76.9L280.689 74.9453ZM275.659 56.183V59.3984H279.894V56.183H275.659ZM275.659 61.7423V65.0367H279.894V61.7423H275.659ZM279.894 67.3778H275.659V71.5212C278.534 71.1094 278.842 71.0586 279.894 70.8781V67.3778Z" fill="#231815"/>
<path d="M308.386 74.4038C309.387 73.9666 312.749 72.5507 315.265 69.8486C314.186 66.3737 313.776 63.6462 313.518 59.1163H304.485V62.1795H311.645C311.595 64.1087 311.465 69.2309 311.107 70.8273C310.901 71.7271 310.491 73.2981 307.924 73.2981H305.538L305.075 70.6468H307.564C308.386 70.6468 308.566 69.9247 308.618 69.5397C308.746 68.8191 308.926 67.3524 308.926 64.5981H304.485V66.7347C304.485 67.0957 304.485 72.6551 302.048 76.7731L299.814 74.8156C301.2 72.3702 301.868 69.7188 301.868 66.863V56.6202H313.39C313.39 55.7444 313.313 52.9139 313.313 52.5783H316.034C316.034 53.557 316.034 54.1493 316.086 56.6202H321.064C319.499 55.4355 318.395 54.8178 317.394 54.3031L318.883 52.3216C320.063 52.835 321.988 53.9181 323.04 54.7924L321.706 56.6202H324.093V59.1163H316.187C316.42 62.6928 316.753 65.0099 317.291 67.1719C318.651 64.8562 319.345 62.9509 319.935 60.6592L322.502 61.4828C321.988 63.2344 320.91 66.9406 318.345 70.3633C318.395 70.4917 319.73 73.7099 320.704 73.7099C321.5 73.7099 321.706 72.5761 322.194 69.7724L324.555 71.0332C324.093 73.5802 323.425 76.8492 320.962 76.8492C318.55 76.8492 316.65 73.143 316.393 72.6283C313.878 75.202 311.081 76.4374 310.003 76.9254L308.386 74.4038Z" fill="#231815"/>
<path d="M352.279 56.4904H341.603V57.7258H350.174V62.7718H341.603V63.9028H350.714V67.0421H352.432V69.2309H350.714V72.3702H341.603V74.2487C341.603 75.5884 340.935 76.7984 339.37 76.7984H334.725L334.339 74.2487H338.215C338.908 74.2487 339.011 74.0428 339.011 73.4518V72.3702H329.72V70.4663H339.011V69.1279H328.232V67.1465H339.011V65.8603H329.848V63.9028H339.011V62.7718H330.669V57.7258H339.011V56.4904H328.515V54.3552H339.011V52.708H341.603V54.3552H352.279L352.279 56.4904ZM339.011 59.5535H333.262V60.9948H339.011V59.5535ZM347.505 59.5535H341.603V60.9948H347.505V59.5535ZM347.967 65.8603H341.603V67.1465H347.967V65.8603ZM348.045 69.1279H341.603V70.4663H348.045V69.1279Z" fill="#231815"/>
<path d="M379.157 76.412C376.385 75.4841 373.15 74.3276 369.865 71.3153V76.7195H367.274V71.3407C365.631 72.782 363.423 74.5335 358.009 76.3867L356.675 74.0964C361.986 72.4745 364.194 70.9289 365.349 70.1053H356.648V67.9701H367.274V66.4244H358.445V64.4444H367.274V62.8987H357.907V60.7889H363.117C363.013 60.3771 362.654 59.1925 362.424 58.7807H356.648V56.568H360.678C360.498 56.183 359.677 54.4314 359.189 53.3765L361.858 52.6037C362.501 53.8391 362.885 54.8686 363.398 56.568H364.965V52.7842H367.479V56.568H369.712V52.7842H372.227V56.568H373.894C374.382 55.5117 375.025 53.7122 375.306 52.6037L377.975 53.3765C377.899 53.6078 377.334 55.2042 376.563 56.568H380.516V58.7807H374.69C374.562 59.1164 374.074 60.5069 373.972 60.7889H379.49V62.8987H369.865V64.4444H378.899V66.4244H369.865V67.9701H380.516V70.1053H371.816C374.845 72.3702 377.489 73.2981 380.644 74.0696L379.157 76.412ZM371.252 60.7889C371.431 60.3771 371.636 59.8102 371.868 58.7807H365.143C365.271 59.0656 365.734 60.4801 365.862 60.7889H371.252Z" fill="#231815"/>
<path d="M356.814 347.327C356.814 348.715 356.544 350.046 356.006 351.322C355.468 352.598 354.73 353.706 353.793 354.647C352.856 355.588 351.751 356.328 350.48 356.868C349.209 357.408 347.881 357.678 346.499 357.678C345.116 357.678 343.791 357.411 342.525 356.875C341.258 356.34 340.151 355.599 339.204 354.654C338.258 353.709 337.515 352.598 336.977 351.322C336.439 350.046 336.17 348.715 336.17 347.327C336.17 345.939 336.439 344.608 336.977 343.331C337.515 342.056 338.258 340.945 339.204 340C340.151 339.055 341.258 338.314 342.525 337.778C343.791 337.243 345.116 336.975 346.499 336.975C347.881 336.975 349.209 337.246 350.48 337.785C351.751 338.326 352.856 339.066 353.793 340.007C354.73 340.948 355.468 342.056 356.006 343.331C356.544 344.608 356.814 345.939 356.814 347.327ZM354.724 347.327C354.724 345.79 354.36 344.375 353.632 343.08C352.903 341.786 351.908 340.763 350.646 340.014C349.384 339.264 347.997 338.889 346.485 338.889C345.334 338.889 344.258 339.104 343.256 339.532C342.253 339.96 341.372 340.563 340.611 341.341C339.851 342.118 339.261 343.024 338.844 344.058C338.426 345.092 338.217 346.181 338.217 347.327C338.217 348.873 338.584 350.291 339.317 351.581C340.05 352.871 341.048 353.89 342.309 354.64C343.571 355.39 344.963 355.765 346.485 355.765C347.997 355.765 349.384 355.39 350.646 354.64C351.908 353.89 352.903 352.868 353.632 351.574C354.36 350.279 354.724 348.863 354.724 347.327ZM350.963 352.901H348.637L346.361 348.472H344.946V352.901H342.898V341.711H347.091C347.778 341.711 348.396 341.867 348.943 342.18C349.491 342.493 349.918 342.913 350.225 343.44C350.531 343.967 350.685 344.534 350.685 345.141C350.685 345.897 350.481 346.536 350.075 347.059C349.668 347.582 349.133 347.955 348.47 348.179L350.963 352.901ZM348.637 345.148C348.637 344.663 348.468 344.26 348.13 343.939C347.793 343.618 347.355 343.457 346.819 343.457H344.946V346.838H346.819C347.355 346.838 347.793 346.677 348.13 346.356C348.468 346.035 348.637 345.632 348.637 345.148Z" fill="#231815"/>
</svg>
