<svg width="192" height="97" viewBox="0 0 192 97" fill="none" xmlns="http://www.w3.org/2000/svg">
<rect x="3" y="3" width="186" height="64.6485" fill="white"/>
<rect x="3" y="3" width="186" height="64.6485" stroke="black" stroke-width="4.33398"/>
<path d="M172.167 46.8137C167.665 46.8137 165.939 43.9706 165.939 39.706V31.3122H163.265V27.623L166.176 27.3861L166.751 22.3092H170.914V27.3861H175.585V31.3122H170.914V39.706C170.914 41.8722 171.794 42.8876 173.487 42.8876C174.096 42.8876 174.84 42.6845 175.348 42.4814L176.16 46.1029C175.145 46.4414 173.825 46.8137 172.167 46.8137Z" fill="black"/>
<path d="M143.578 46.3399V19.3308H148.519V26.1339L148.316 29.6877C149.839 28.2662 151.701 26.9123 154.273 26.9123C158.368 26.9123 160.128 29.7554 160.128 34.5277V46.3399H155.153V35.1369C155.153 32.2261 154.341 31.1769 152.479 31.1769C150.922 31.1769 149.941 31.9215 148.519 33.3092V46.3399H143.578Z" fill="black"/>
<path d="M130.051 54.5644C125.583 54.5644 122.131 53.0413 122.131 49.6906C122.131 48.0998 123.112 46.746 124.839 45.7644V45.5952C123.857 44.9521 123.112 43.9706 123.112 42.4137C123.112 40.9922 124.094 39.6722 125.211 38.8599V38.7245C123.925 37.7768 122.706 35.983 122.706 33.783C122.706 29.3153 126.328 26.9122 130.355 26.9122C131.405 26.9122 132.42 27.1153 133.198 27.3861H140.035V31.0414H136.786C137.294 31.6845 137.666 32.7337 137.666 33.9184C137.666 38.1829 134.417 40.3491 130.355 40.3491C129.611 40.3491 128.731 40.1799 127.919 39.9091C127.377 40.3491 127.106 40.7891 127.106 41.5337C127.106 42.5491 127.851 43.0906 130.085 43.0906H133.3C137.869 43.0906 140.34 44.5121 140.34 47.829C140.34 51.6536 136.38 54.5644 130.051 54.5644ZM130.355 37.2691C132.014 37.2691 133.3 36.0168 133.3 33.783C133.3 31.5491 132.048 30.2968 130.355 30.2968C128.663 30.2968 127.377 31.5491 127.377 33.783C127.377 36.0168 128.697 37.2691 130.355 37.2691ZM130.795 51.4167C133.638 51.4167 135.602 50.1644 135.602 48.6752C135.602 47.3214 134.485 46.9829 132.454 46.9829H130.152C129.002 46.9829 128.189 46.8814 127.512 46.7121C126.666 47.389 126.26 48.1337 126.26 48.9121C126.26 50.5029 128.02 51.4167 130.795 51.4167Z" fill="black"/>
<path d="M113.103 46.3398V27.3861H118.045V46.3398H113.103ZM115.608 24.3399C113.882 24.3399 112.629 23.1892 112.629 21.6322C112.629 20.0076 113.882 18.9246 115.608 18.9246C117.3 18.9246 118.552 20.0076 118.552 21.6322C118.552 23.1892 117.3 24.3399 115.608 24.3399Z" fill="black"/>
<path d="M98.3618 46.3398V27.3861H102.423L102.762 30.7368H102.897C104.285 28.2661 106.316 26.9122 108.279 26.9122C109.328 26.9122 109.937 27.0815 110.513 27.3184L109.633 31.6168C108.989 31.4137 108.448 31.3122 107.669 31.3122C106.18 31.3122 104.386 32.2937 103.303 35.0353V46.3398H98.3618Z" fill="black"/>
<path d="M80.5855 53.9551C79.4686 53.9551 78.724 53.8197 77.9794 53.5828L78.8932 49.7582C79.2317 49.8597 79.7732 49.9951 80.2132 49.9951C82.1424 49.9951 83.2255 48.7766 83.767 47.1182L84.1055 46.0013L76.7271 27.386H81.7363L84.7486 36.1859C85.3239 37.8782 85.7978 39.7059 86.3393 41.5336H86.5085C86.9485 39.7736 87.4224 37.9459 87.8624 36.1859L90.4685 27.386H95.2408L88.5055 46.9151C86.847 51.3828 84.8162 53.9551 80.5855 53.9551Z" fill="black"/>
<path d="M58.4248 53.6167V27.3861H62.4863L62.8248 29.3491H62.9602C64.5509 27.9953 66.514 26.9122 68.5448 26.9122C73.2155 26.9122 75.9909 30.7368 75.9909 36.5583C75.9909 43.0568 72.0986 46.8137 67.9355 46.8137C66.2771 46.8137 64.6863 46.0691 63.2309 44.7491L63.3663 47.8629V53.6167H58.4248ZM66.8186 42.7183C69.1201 42.7183 70.8801 40.7552 70.8801 36.626C70.8801 33.0045 69.7294 31.0076 67.1232 31.0076C65.8371 31.0076 64.6863 31.6507 63.3663 32.9707V41.2968C64.5848 42.346 65.8032 42.7183 66.8186 42.7183Z" fill="black"/>
<path d="M46.1744 46.8137C41.436 46.8137 37.0698 43.1583 37.0698 36.8968C37.0698 30.5676 41.436 26.9122 46.1744 26.9122C50.9128 26.9122 55.279 30.5676 55.279 36.8968C55.279 43.1583 50.9128 46.8137 46.1744 46.8137ZM46.1744 42.7521C48.7467 42.7521 50.2021 40.4506 50.2021 36.8968C50.2021 33.3091 48.7467 30.9737 46.1744 30.9737C43.6021 30.9737 42.1467 33.3091 42.1467 36.8968C42.1467 40.4506 43.6021 42.7521 46.1744 42.7521Z" fill="black"/>
<path d="M27.3141 46.8137C20.9849 46.8137 15.8403 42.2783 15.8403 33.9183C15.8403 25.6599 21.1542 20.8199 27.4833 20.8199C30.6649 20.8199 33.2033 22.343 34.8279 24.0353L32.1879 27.2168C30.9356 25.9984 29.4803 25.1184 27.5849 25.1184C23.7941 25.1184 20.9511 28.3676 20.9511 33.7491C20.9511 39.1983 23.5234 42.4814 27.4833 42.4814C29.6156 42.4814 31.3079 41.466 32.6618 40.0106L35.3018 43.1244C33.2372 45.5275 30.5633 46.8137 27.3141 46.8137Z" fill="black"/>
<path d="M169.808 96.5646C168.232 96.5646 166.488 95.8711 165.332 94.9044L166.74 92.971C167.791 93.7906 168.8 94.2529 169.892 94.2529C171.069 94.2529 171.595 93.7486 171.595 93.013C171.595 92.1304 170.376 91.7311 169.136 91.2477C167.644 90.6803 165.92 89.7766 165.92 87.8222C165.92 85.6996 167.644 84.2075 170.292 84.2075C172.015 84.2075 173.318 84.922 174.306 85.6576L172.919 87.528C172.078 86.9395 171.258 86.5192 170.376 86.5192C169.325 86.5192 168.821 86.9816 168.821 87.6541C168.821 88.5157 169.976 88.8309 171.216 89.2933C172.772 89.8817 174.495 90.6593 174.495 92.8449C174.495 94.9044 172.877 96.5646 169.808 96.5646Z" fill="black"/>
<path d="M160.365 96.5646C157.107 96.5646 154.627 94.295 154.627 90.4071C154.627 86.4772 157.444 84.2075 160.638 84.2075C162.088 84.2075 163.202 84.7749 164.063 85.5105L162.592 87.507C162.004 87.0026 161.457 86.7294 160.785 86.7294C158.999 86.7294 157.78 88.1794 157.78 90.4071C157.78 92.6137 158.999 94.0428 160.701 94.0428C161.542 94.0428 162.34 93.6435 162.992 93.0971L164.211 95.1356C163.097 96.1233 161.668 96.5646 160.365 96.5646Z" fill="black"/>
<path d="M148.98 96.2704V84.5017H152.049V96.2704H148.98ZM150.535 82.6103C149.464 82.6103 148.686 81.8958 148.686 80.9291C148.686 79.9204 149.464 79.2479 150.535 79.2479C151.586 79.2479 152.364 79.9204 152.364 80.9291C152.364 81.8958 151.586 82.6103 150.535 82.6103Z" fill="black"/>
<path d="M142.148 96.5646C140.572 96.5646 138.827 95.8711 137.671 94.9044L139.079 92.971C140.13 93.7906 141.139 94.2529 142.232 94.2529C143.409 94.2529 143.934 93.7486 143.934 93.013C143.934 92.1304 142.715 91.7311 141.475 91.2477C139.983 90.6803 138.26 89.7766 138.26 87.8222C138.26 85.6996 139.983 84.2075 142.631 84.2075C144.354 84.2075 145.657 84.922 146.645 85.6576L145.258 87.528C144.417 86.9395 143.598 86.5192 142.715 86.5192C141.664 86.5192 141.16 86.9816 141.16 87.6541C141.16 88.5157 142.316 88.8309 143.556 89.2933C145.111 89.8817 146.834 90.6593 146.834 92.8449C146.834 94.9044 145.216 96.5646 142.148 96.5646Z" fill="black"/>
<path d="M129.269 96.5646C127.168 96.5646 125.781 95.0725 125.781 93.0761C125.781 90.5542 127.819 89.2302 132.548 88.7259C132.506 87.57 132.001 86.6873 130.551 86.6873C129.458 86.6873 128.408 87.1707 127.315 87.8012L126.201 85.7627C127.588 84.901 129.269 84.2075 131.119 84.2075C134.103 84.2075 135.637 85.9938 135.637 89.3983V96.2704H133.115L132.884 95.0095H132.821C131.791 95.8921 130.614 96.5646 129.269 96.5646ZM130.278 94.1479C131.161 94.1479 131.812 93.7275 132.548 92.992V90.6172C129.69 90.9955 128.723 91.7731 128.723 92.8239C128.723 93.7486 129.374 94.1479 130.278 94.1479Z" fill="black"/>
<path d="M112.317 96.2705V80.719H117.466C120.66 80.719 123.098 81.6437 123.098 84.5438C123.098 85.9729 122.299 87.444 120.975 87.9063V88.0114C122.657 88.4107 123.896 89.5875 123.896 91.6891C123.896 94.8204 121.291 96.2705 117.865 96.2705H112.317ZM115.427 87.0447H117.235C119.21 87.0447 120.072 86.2461 120.072 85.0062C120.072 83.6401 119.147 83.0937 117.277 83.0937H115.427V87.0447ZM115.427 93.8747H117.592C119.714 93.8747 120.87 93.1181 120.87 91.4999C120.87 89.9868 119.735 89.3564 117.592 89.3564H115.427V93.8747Z" fill="black"/>
<path d="M100.199 96.5646C96.9208 96.5646 94.3569 94.2739 94.3569 90.4071C94.3569 86.5823 97.0259 84.2075 99.842 84.2075C103.078 84.2075 104.76 86.5823 104.76 89.8397C104.76 90.4071 104.697 90.9745 104.612 91.2477H97.3621C97.6143 93.1811 98.8753 94.1899 100.62 94.1899C101.586 94.1899 102.427 93.8957 103.268 93.3703L104.318 95.2617C103.162 96.0603 101.67 96.5646 100.199 96.5646ZM97.3201 89.2092H102.112C102.112 87.612 101.397 86.6033 99.884 86.6033C98.6441 86.6033 97.5513 87.4859 97.3201 89.2092Z" fill="black"/>
<path d="M81.8599 96.2704V79.5001H84.9281V83.7242L84.802 85.9308C85.7477 85.0482 86.9036 84.2075 88.5008 84.2075C91.0436 84.2075 92.1364 85.9728 92.1364 88.936V96.2704H89.0472V89.3143C89.0472 87.507 88.5428 86.8555 87.3869 86.8555C86.4202 86.8555 85.8108 87.3178 84.9281 88.1795V96.2704H81.8599Z" fill="black"/>
<path d="M77.343 96.5647C74.5479 96.5647 73.4761 94.7993 73.4761 92.1514V86.9395H71.8159V84.6489L73.6232 84.5018L73.9805 81.3494H76.5654V84.5018H79.4656V86.9395H76.5654V92.1514C76.5654 93.4964 77.1118 94.1268 78.1626 94.1268C78.5409 94.1268 79.0032 94.0008 79.3184 93.8747L79.8228 96.1233C79.1924 96.3335 78.3728 96.5647 77.343 96.5647Z" fill="black"/>
<path d="M48.0181 96.2704V84.5017H50.5399L50.7501 86.0779H50.8341C51.8219 85.0481 52.9147 84.2075 54.4488 84.2075C56.1301 84.2075 57.1178 84.9641 57.6852 86.267C58.757 85.1322 59.8918 84.2075 61.426 84.2075C63.9268 84.2075 65.0827 85.9728 65.0827 88.936V96.2704H61.9934V89.3143C61.9934 87.507 61.468 86.8555 60.3542 86.8555C59.6817 86.8555 58.9251 87.2968 58.0845 88.1794V96.2704H54.9952V89.3143C54.9952 87.507 54.4698 86.8555 53.356 86.8555C52.6835 86.8555 51.927 87.2968 51.0863 88.1794V96.2704H48.0181Z" fill="black"/>
<path d="M40.2 96.5646C37.2579 96.5646 34.5469 94.295 34.5469 90.4071C34.5469 86.4772 37.2579 84.2075 40.2 84.2075C43.1422 84.2075 45.8532 86.4772 45.8532 90.4071C45.8532 94.295 43.1422 96.5646 40.2 96.5646ZM40.2 94.0428C41.7972 94.0428 42.7009 92.6137 42.7009 90.4071C42.7009 88.1794 41.7972 86.7294 40.2 86.7294C38.6029 86.7294 37.6992 88.1794 37.6992 90.4071C37.6992 92.6137 38.6029 94.0428 40.2 94.0428Z" fill="black"/>
<path d="M26.376 96.2704V84.5017H28.8978L29.108 86.5823H29.1921C30.0537 85.0481 31.3146 84.2075 32.5335 84.2075C33.185 84.2075 33.5633 84.3126 33.9205 84.4597L33.3741 87.1287C32.9748 87.0026 32.6386 86.9395 32.1552 86.9395C31.2306 86.9395 30.1167 87.549 29.4442 89.2512V96.2704H26.376Z" fill="black"/>
<path d="M25.4072 79.6262L24.8398 81.8959C24.4405 81.7487 23.9781 81.6437 23.5999 81.6437C22.6752 81.6437 22.1708 82.1901 22.1708 83.493V84.5018H24.3774V86.9396H22.1708V96.2705H19.0815V86.9396H17.5054V84.6489L19.0815 84.5228V83.5561C19.0815 81.0973 20.2164 79.2059 23.1796 79.2059C24.0832 79.2059 24.8818 79.416 25.4072 79.6262Z" fill="black"/>
</svg>
